<mxfile host="app.diagrams.net" agent="Mozilla/5.0 (Windows NT 10.0; Win64; x64) AppleWebKit/537.36 (KHTML, like Gecko) Chrome/140.0.0.0 Safari/537.36" version="28.2.3">
  <diagram name="Trang-1" id="W3B2K-PrgU7G14BdT-sq">
    <mxGraphModel dx="769" dy="1620" grid="1" gridSize="10" guides="1" tooltips="1" connect="1" arrows="1" fold="1" page="1" pageScale="1" pageWidth="827" pageHeight="1169" math="0" shadow="0">
      <root>
        <mxCell id="0" />
        <mxCell id="1" parent="0" />
        <mxCell id="Tui8f5x_TFB0Xlh08zxA-25" value="Internet" style="rounded=0;whiteSpace=wrap;html=1;" vertex="1" parent="1">
          <mxGeometry x="30" y="140" width="120" height="60" as="geometry" />
        </mxCell>
        <mxCell id="Tui8f5x_TFB0Xlh08zxA-26" value="Router Wifi" style="rounded=0;whiteSpace=wrap;html=1;" vertex="1" parent="1">
          <mxGeometry x="250" y="140" width="120" height="60" as="geometry" />
        </mxCell>
        <mxCell id="Tui8f5x_TFB0Xlh08zxA-27" value="Laptop" style="rounded=0;whiteSpace=wrap;html=1;" vertex="1" parent="1">
          <mxGeometry x="480" y="-20" width="120" height="60" as="geometry" />
        </mxCell>
        <mxCell id="Tui8f5x_TFB0Xlh08zxA-28" value="Điện thoại" style="rounded=0;whiteSpace=wrap;html=1;" vertex="1" parent="1">
          <mxGeometry x="30" y="-20" width="120" height="60" as="geometry" />
        </mxCell>
        <mxCell id="Tui8f5x_TFB0Xlh08zxA-29" value="Máy tính&amp;nbsp;" style="rounded=0;whiteSpace=wrap;html=1;" vertex="1" parent="1">
          <mxGeometry x="250" y="-20" width="120" height="60" as="geometry" />
        </mxCell>
        <mxCell id="Tui8f5x_TFB0Xlh08zxA-32" value="" style="endArrow=classic;html=1;rounded=0;exitX=1;exitY=0.5;exitDx=0;exitDy=0;entryX=0;entryY=0.5;entryDx=0;entryDy=0;" edge="1" parent="1" source="Tui8f5x_TFB0Xlh08zxA-25" target="Tui8f5x_TFB0Xlh08zxA-26">
          <mxGeometry width="50" height="50" relative="1" as="geometry">
            <mxPoint x="170" y="160" as="sourcePoint" />
            <mxPoint x="220" y="110" as="targetPoint" />
          </mxGeometry>
        </mxCell>
        <mxCell id="Tui8f5x_TFB0Xlh08zxA-35" value="" style="endArrow=classic;html=1;rounded=0;exitX=1;exitY=0.5;exitDx=0;exitDy=0;entryX=0;entryY=0.5;entryDx=0;entryDy=0;" edge="1" parent="1" source="Tui8f5x_TFB0Xlh08zxA-26" target="Tui8f5x_TFB0Xlh08zxA-27">
          <mxGeometry width="50" height="50" relative="1" as="geometry">
            <mxPoint x="420" y="160" as="sourcePoint" />
            <mxPoint x="470" y="110" as="targetPoint" />
          </mxGeometry>
        </mxCell>
        <mxCell id="Tui8f5x_TFB0Xlh08zxA-40" value="TV" style="rounded=0;whiteSpace=wrap;html=1;" vertex="1" parent="1">
          <mxGeometry x="480" y="140" width="120" height="60" as="geometry" />
        </mxCell>
        <mxCell id="Tui8f5x_TFB0Xlh08zxA-41" value="Máy in" style="rounded=0;whiteSpace=wrap;html=1;" vertex="1" parent="1">
          <mxGeometry x="480" y="270" width="120" height="60" as="geometry" />
        </mxCell>
        <mxCell id="Tui8f5x_TFB0Xlh08zxA-42" value="Máy tính bảng" style="rounded=0;whiteSpace=wrap;html=1;" vertex="1" parent="1">
          <mxGeometry x="250" y="280" width="120" height="60" as="geometry" />
        </mxCell>
        <mxCell id="Tui8f5x_TFB0Xlh08zxA-44" value="" style="endArrow=classic;html=1;rounded=0;entryX=0.5;entryY=1;entryDx=0;entryDy=0;" edge="1" parent="1" target="Tui8f5x_TFB0Xlh08zxA-29">
          <mxGeometry width="50" height="50" relative="1" as="geometry">
            <mxPoint x="310" y="140" as="sourcePoint" />
            <mxPoint x="360" y="90" as="targetPoint" />
          </mxGeometry>
        </mxCell>
        <mxCell id="Tui8f5x_TFB0Xlh08zxA-45" value="" style="endArrow=classic;html=1;rounded=0;entryX=0.5;entryY=1;entryDx=0;entryDy=0;entryPerimeter=0;" edge="1" parent="1" target="Tui8f5x_TFB0Xlh08zxA-28">
          <mxGeometry width="50" height="50" relative="1" as="geometry">
            <mxPoint x="310" y="140" as="sourcePoint" />
            <mxPoint x="210" y="60" as="targetPoint" />
          </mxGeometry>
        </mxCell>
        <mxCell id="Tui8f5x_TFB0Xlh08zxA-46" value="" style="endArrow=classic;html=1;rounded=0;exitX=1;exitY=0.5;exitDx=0;exitDy=0;entryX=0;entryY=0.5;entryDx=0;entryDy=0;" edge="1" parent="1" source="Tui8f5x_TFB0Xlh08zxA-26" target="Tui8f5x_TFB0Xlh08zxA-40">
          <mxGeometry width="50" height="50" relative="1" as="geometry">
            <mxPoint x="390" y="180" as="sourcePoint" />
            <mxPoint x="440" y="130" as="targetPoint" />
          </mxGeometry>
        </mxCell>
        <mxCell id="Tui8f5x_TFB0Xlh08zxA-47" value="" style="endArrow=classic;html=1;rounded=0;exitX=1;exitY=0.5;exitDx=0;exitDy=0;entryX=0.5;entryY=0;entryDx=0;entryDy=0;" edge="1" parent="1" source="Tui8f5x_TFB0Xlh08zxA-26" target="Tui8f5x_TFB0Xlh08zxA-41">
          <mxGeometry width="50" height="50" relative="1" as="geometry">
            <mxPoint x="400" y="260" as="sourcePoint" />
            <mxPoint x="450" y="210" as="targetPoint" />
          </mxGeometry>
        </mxCell>
        <mxCell id="Tui8f5x_TFB0Xlh08zxA-48" value="" style="endArrow=classic;html=1;rounded=0;exitX=0.5;exitY=1;exitDx=0;exitDy=0;entryX=0.5;entryY=0;entryDx=0;entryDy=0;" edge="1" parent="1" source="Tui8f5x_TFB0Xlh08zxA-26" target="Tui8f5x_TFB0Xlh08zxA-42">
          <mxGeometry width="50" height="50" relative="1" as="geometry">
            <mxPoint x="30" y="310" as="sourcePoint" />
            <mxPoint x="80" y="260" as="targetPoint" />
          </mxGeometry>
        </mxCell>
      </root>
    </mxGraphModel>
  </diagram>
</mxfile>
